<?xml version="1.0" encoding="UTF-8" standalone="no"?>
<!-- Created with Inkscape (http://www.inkscape.org/) -->

<svg
   width="100mm"
   height="100mm"
   viewBox="0 0 99.999999 100"
   version="1.1"
   id="svg1"
   xmlns:xlink="http://www.w3.org/1999/xlink"
   xmlns="http://www.w3.org/2000/svg"
   xmlns:svg="http://www.w3.org/2000/svg">
  <defs
     id="defs1">
    <linearGradient
       id="linearGradient6">
      <stop
         style="stop-color:#3e4be1;stop-opacity:0.85000002;"
         offset="0"
         id="stop7" />
      <stop
         style="stop-color:#2430a9;stop-opacity:0.91666669;"
         offset="1"
         id="stop6" />
    </linearGradient>
    <linearGradient
       id="swatch3">
      <stop
         style="stop-color:#0000ff;stop-opacity:1;"
         offset="0"
         id="stop3" />
    </linearGradient>
    <linearGradient
       xlink:href="#linearGradient6"
       id="linearGradient7"
       x1="93.052071"
       y1="291.04166"
       x2="157.862"
       y2="365.34247"
       gradientUnits="userSpaceOnUse"
       gradientTransform="translate(104.73321,-116.72097)" />
  </defs>
  <g
     id="layer1"
     transform="translate(-181.76251,-159.25978)">
    <g
       id="g3">
      <circle
         style="fill:url(#linearGradient7);fill-opacity:1;stroke-width:0.264583"
         id="circle8"
         cx="231.76251"
         cy="209.25978"
         r="50" />
      <g
         id="g2">
        <path
           style="display:inline;fill:#ffffff;stroke-width:0.149817"
           d="m 249.67001,187.10634 a 9.4134331,9.4134331 0 0 0 0,13.3126 9.4134331,9.4134331 0 0 0 13.3126,0 9.4134331,9.4134331 0 0 0 0,-13.3126 9.4134331,9.4134331 0 0 0 -13.3126,0 z"
           id="path2" />
        <path
           style="display:inline;fill:#ffffff;stroke-width:0.149817"
           d="m 234.01861,202.75776 a 9.4134331,9.4134331 0 0 0 0,13.3126 9.4134331,9.4134331 0 0 0 13.31259,0 9.4134331,9.4134331 0 0 0 0,-13.3126 9.4134331,9.4134331 0 0 0 -13.31259,0 z"
           id="path1" />
        <path
           style="display:inline;fill:#c7d7eb;fill-opacity:0.92029;stroke-width:0.149817"
           d="m 200.23409,200.27559 c -3.68759,3.68759 -3.15008,10.16253 1.20519,14.51778 l 15.72296,15.72298 c 4.35526,4.35526 10.8302,4.89277 14.51778,1.20518 3.68759,-3.68759 3.15009,-10.16252 -1.20518,-14.51778 l -15.72297,-15.72298 c -4.35526,-4.35526 -10.83019,-4.89277 -14.51778,-1.20518 z"
           id="path8" />
      </g>
    </g>
  </g>
</svg>
